<svg xmlns="http://www.w3.org/2000/svg" viewBox="0 0 128 128" role="img" aria-labelledby="title desc">
  <title id="title">Hotvect pepper</title>
  <desc id="desc">A polished red chili pepper with a curled green stem.</desc>
  <defs>
    <linearGradient id="pepper" x1="18" y1="112" x2="96" y2="38" gradientUnits="userSpaceOnUse">
      <stop offset="0" stop-color="#a91326"/>
      <stop offset=".22" stop-color="#c91d2e"/>
      <stop offset=".62" stop-color="#ed3843"/>
      <stop offset=".84" stop-color="#df2434"/>
      <stop offset="1" stop-color="#ae1024"/>
    </linearGradient>
    <linearGradient id="pepper-edge" x1="46" y1="114" x2="101" y2="51" gradientUnits="userSpaceOnUse">
      <stop offset="0" stop-color="#8f1020"/>
      <stop offset="1" stop-color="#bd1427"/>
    </linearGradient>
    <linearGradient id="stem" x1="83" y1="47" x2="99" y2="16" gradientUnits="userSpaceOnUse">
      <stop offset="0" stop-color="#4d7d3e"/>
      <stop offset="1" stop-color="#82a45d"/>
    </linearGradient>
  </defs>
  <g transform="translate(8 1) scale(.94)">
  <path fill="url(#pepper)" d="M87 37c10 3 14 11 10 23-7 19-27 39-52 52-15 8-29 9-36 3-3-3-1-7 3-10 17-11 31-24 38-38 6-11 4-20 12-26 6-5 14-5 25-4Z"/>
  <path fill="url(#pepper-edge)" d="M94 44c6 8 3 18-4 29-10 15-27 31-47 41-13 7-25 8-32 3 12 1 25-4 38-12 21-13 36-31 43-48 2-5 3-9 2-13Z" opacity=".62"/>
  <path fill="#f65352" d="M18 109c13-8 25-18 33-31 7-11 8-22 13-31-2 13-4 26-12 38-8 12-20 21-34 24Z" opacity=".42"/>
  <path fill="#ffd0c1" d="M22 106c10-7 19-16 26-27 6-9 9-18 13-26 1-2 4-2 4 1-3 10-7 20-13 29-8 11-17 20-28 26-3 2-5-1-2-3Z" opacity=".8"/>
  <path fill="url(#stem)" d="M82 43c2-7 0-13 4-20 3-6 8-9 13-8 3 1 4 3 2 5-1 2-3 2-5 1-3 0-6 3-6 7-1 5 1 9 1 13l-9 2Z"/>
  <path fill="#6e9750" d="M75 43c4-6 11-8 18-5 5 2 7 7 7 13-4-3-8-4-12-2-4 1-7 4-9 8l-4-14Z"/>
  <path fill="#9ab676" d="M89 40c4 1 6 3 7 6-3-1-6-1-9 0-3 1-5 3-7 6l-2-6c3-4 7-6 11-6Z" opacity=".66"/>
  </g>
</svg>
